<svg xmlns="http://www.w3.org/2000/svg" viewBox="0 0 100 100" width="40" height="40">
  <defs>
    <linearGradient id="dnaGradient" x1="0%" y1="0%" x2="100%" y2="100%">
      <stop offset="0%" style="stop-color:#3498db;stop-opacity:1" />
      <stop offset="100%" style="stop-color:#2ecc71;stop-opacity:1" />
    </linearGradient>
  </defs>
  <g stroke="url(#dnaGradient)" stroke-width="4" fill="none" stroke-linecap="round">
    <path d="M 30 15 Q 50 25 30 35 Q 10 45 30 55 Q 50 65 30 75 Q 10 85 30 95" />
    <path d="M 70 15 Q 50 25 70 35 Q 90 45 70 55 Q 50 65 70 75 Q 90 85 70 95" />
  </g>
  <g stroke="#2c3e50" stroke-width="2" stroke-linecap="round">
    <line x1="35" y1="20" x2="65" y2="20" />
    <line x1="20" y1="35" x2="80" y2="35" />
    <line x1="35" y1="50" x2="65" y2="50" />
    <line x1="20" y1="65" x2="80" y2="65" />
    <line x1="35" y1="80" x2="65" y2="80" />
  </g>
  <g fill="#2c3e50">
    <circle cx="35" cy="20" r="3" />
    <circle cx="65" cy="20" r="3" />
    <circle cx="20" cy="35" r="3" />
    <circle cx="80" cy="35" r="3" />
    <circle cx="35" cy="50" r="3" />
    <circle cx="65" cy="50" r="3" />
    <circle cx="20" cy="65" r="3" />
    <circle cx="80" cy="65" r="3" />
    <circle cx="35" cy="80" r="3" />
    <circle cx="65" cy="80" r="3" />
  </g>
</svg>
